<svg width="157" height="38" viewBox="0 0 157 38" fill="none" xmlns="http://www.w3.org/2000/svg">
<path d="M35.1291 31.1557L33.3523 28.1418H7.81679L20.6044 5.8637L17.2654 0H12.9565C12.0312 0.00208932 11.1231 0.251447 10.3249 0.722592C9.5266 1.19374 8.86691 1.86979 8.41304 2.68169L0.685622 16.4104C0.236316 17.2028 0 18.0995 0 19.012C0 19.9245 0.236316 20.8212 0.685622 21.6136L6.09561 31.2197L8.41304 35.3343C8.81027 36.0401 9.36434 36.6437 10.0319 37.0978C10.6995 37.5519 11.4624 37.8443 12.2609 37.952C12.49 37.9842 12.7211 38.0002 12.9525 38H28.2365C29.1614 38.0005 30.07 37.7541 30.8695 37.2858C31.6691 36.8175 32.331 36.1441 32.7878 35.3343L35.0894 31.2197L35.1291 31.1557Z" fill="url(#paint0_linear_2067_297)"/>
<path d="M35.1722 31.1555L35.1285 31.2316L32.823 35.3301C32.3681 36.1399 31.7076 36.8134 30.9093 37.2818C30.111 37.7501 29.2035 37.9965 28.2795 37.9958H12.9956C12.7642 37.996 12.5331 37.98 12.3039 37.9478C11.5041 37.841 10.7398 37.549 10.0708 37.0949C9.4018 36.6407 8.84641 36.0367 8.44816 35.3301L6.13867 31.2195L7.90358 28.1456L7.995 28.0896L16.5651 22.8863C17.8888 22.0217 18.8786 21.5134 19.8167 21.3533C19.8379 21.3514 19.8592 21.3514 19.8803 21.3533L20.0632 21.3293L20.3812 21.3053H20.572C20.7248 21.3095 20.8774 21.3215 21.0291 21.3413C22.003 21.4734 23.0444 21.9657 24.4675 22.7902L33.3477 28.1096L33.3993 28.1416L35.1722 31.1555Z" fill="url(#paint1_linear_2067_297)"/>
<path d="M40.5516 21.6136L35.1335 31.2197L35.1773 31.1437L33.3965 28.1418L20.6764 5.83568V5.8637L17.3096 0H28.2846C29.2103 0.00262166 30.1188 0.252159 30.9176 0.723217C31.7163 1.19427 32.3769 1.87002 32.832 2.68169L40.5516 16.4104C40.9988 17.2034 41.2341 18.0999 41.2341 19.012C41.2341 19.9241 40.9988 20.8206 40.5516 21.6136Z" fill="url(#paint2_linear_2067_297)"/>
<path d="M0.685623 21.6136L6.10753 31.2197L6.06381 31.1437L7.84064 28.1298L20.5607 5.82368V5.85169L23.9355 0H12.9565C12.0312 0.00208932 11.1231 0.251447 10.3249 0.722592C9.5266 1.19374 8.86691 1.86979 8.41304 2.68169L0.685623 16.4104C0.236316 17.2028 0 18.0995 0 19.012C0 19.9245 0.236316 20.8212 0.685623 21.6136Z" fill="url(#paint3_linear_2067_297)"/>
<path d="M147.754 30.4569C146.217 30.4569 144.815 30.1015 143.547 29.3908C142.299 28.68 141.3 27.7099 140.551 26.4805C139.821 25.2511 139.456 23.8488 139.456 22.2736C139.456 20.6984 139.821 19.2961 140.551 18.0667C141.3 16.8373 142.299 15.8672 143.547 15.1565C144.796 14.4457 146.198 14.0904 147.754 14.0904C149.291 14.0904 150.684 14.4457 151.932 15.1565C153.181 15.8672 154.17 16.8373 154.9 18.0667C155.649 19.2769 156.024 20.6792 156.024 22.2736C156.024 23.8488 155.649 25.2511 154.9 26.4805C154.151 27.7099 153.152 28.68 151.903 29.3908C150.655 30.1015 149.272 30.4569 147.754 30.4569ZM147.754 26.9992C148.599 26.9992 149.339 26.7975 149.973 26.3941C150.626 25.9907 151.135 25.4336 151.5 24.7229C151.884 23.9929 152.076 23.1765 152.076 22.2736C152.076 21.3516 151.884 20.5448 151.5 19.8532C151.135 19.1425 150.626 18.5854 149.973 18.182C149.339 17.7594 148.599 17.5481 147.754 17.5481C146.89 17.5481 146.131 17.7594 145.478 18.182C144.825 18.5854 144.306 19.1425 143.922 19.8532C143.557 20.5448 143.374 21.3516 143.374 22.2736C143.374 23.1765 143.557 23.9929 143.922 24.7229C144.306 25.4336 144.825 25.9907 145.478 26.3941C146.131 26.7975 146.89 26.9992 147.754 26.9992Z" fill="white"/>
<path d="M129.311 30.1111V14.4361H132.855V17.9227L132.567 17.404C132.932 16.2322 133.498 15.4158 134.267 14.9548C135.054 14.4938 135.995 14.2632 137.09 14.2632H138.012V17.6057H136.658C135.582 17.6057 134.718 17.9419 134.065 18.6142C133.412 19.2673 133.085 20.1894 133.085 21.3804V30.1111H129.311Z" fill="white"/>
<path d="M110.945 30.1111V8.6444H118.955C120.415 8.6444 121.702 8.91333 122.816 9.4512C123.95 9.96986 124.833 10.7382 125.467 11.7563C126.101 12.7552 126.418 13.9751 126.418 15.4158C126.418 16.8373 126.092 18.0571 125.438 19.0752C124.805 20.0741 123.93 20.8425 122.816 21.3803C121.702 21.9182 120.415 22.1871 118.955 22.1871H114.864V30.1111H110.945ZM114.864 18.7294H119.013C119.724 18.7294 120.338 18.595 120.857 18.326C121.376 18.0379 121.779 17.6441 122.067 17.1446C122.355 16.6452 122.499 16.0689 122.499 15.4158C122.499 14.7434 122.355 14.1671 122.067 13.6869C121.779 13.1875 121.376 12.8033 120.857 12.5343C120.338 12.2462 119.724 12.1021 119.013 12.1021H114.864V18.7294Z" fill="white"/>
<path d="M95.2965 30.4569C93.6829 30.4569 92.271 30.0919 91.0608 29.362C89.8506 28.632 88.9093 27.6427 88.237 26.3941C87.5647 25.1455 87.2285 23.7624 87.2285 22.2448C87.2285 20.6696 87.5647 19.2769 88.237 18.0667C88.9286 16.8373 89.8602 15.8672 91.032 15.1565C92.223 14.4457 93.5484 14.0904 95.0084 14.0904C96.2378 14.0904 97.3135 14.2921 98.2356 14.6955C99.1768 15.0989 99.974 15.6559 100.627 16.3667C101.28 17.0774 101.78 17.8939 102.126 18.8159C102.471 19.7188 102.644 20.6984 102.644 21.755C102.644 22.0239 102.625 22.3024 102.587 22.5906C102.567 22.8787 102.519 23.1285 102.442 23.3398H90.3405V20.4583H100.31L98.5237 21.8126C98.6966 20.929 98.6486 20.1414 98.3796 19.4498C98.1299 18.7583 97.7073 18.2108 97.1118 17.8074C96.5355 17.404 95.8344 17.2023 95.0084 17.2023C94.2208 17.2023 93.5196 17.404 92.9049 17.8074C92.2902 18.1916 91.8196 18.7679 91.493 19.5363C91.1857 20.2854 91.0704 21.1979 91.1473 22.2736C91.0704 23.2341 91.1953 24.0889 91.5218 24.8381C91.8676 25.5681 92.3671 26.1348 93.0202 26.5382C93.6925 26.9416 94.4609 27.1433 95.3253 27.1433C96.1898 27.1433 96.9197 26.9608 97.5152 26.5958C98.1299 26.2308 98.6102 25.741 98.9559 25.1263L102.01 26.6246C101.703 27.3738 101.223 28.0365 100.57 28.6128C99.9164 29.1891 99.1384 29.6405 98.2356 29.9671C97.3519 30.2936 96.3723 30.4569 95.2965 30.4569Z" fill="white"/>
<path d="M76.5491 30.1111L70.3828 14.4361H74.5033L78.9695 26.7687H77.4423L81.9373 14.4361H86.0578L79.8915 30.1111H76.5491Z" fill="white"/>
<path d="M50.7417 30.1111L58.147 8.64439H63.2183L70.6236 30.1111H66.359L64.8319 25.5008H56.5334L54.9774 30.1111H50.7417ZM57.6571 22.0431H63.7081L60.1352 11.3529H61.2301L57.6571 22.0431Z" fill="white"/>
<defs>
<linearGradient id="paint0_linear_2067_297" x1="30.6481" y1="34.6219" x2="0.669199" y2="13.1906" gradientUnits="userSpaceOnUse">
<stop stop-color="#8B4FDD"/>
<stop offset="1" stop-color="#12B886"/>
</linearGradient>
<linearGradient id="paint1_linear_2067_297" x1="31.4687" y1="36.512" x2="18.1427" y2="18.5863" gradientUnits="userSpaceOnUse">
<stop stop-color="#8B4FDD"/>
<stop offset="1" stop-color="#12B886"/>
</linearGradient>
<linearGradient id="paint2_linear_2067_297" x1="38.1823" y1="28.4443" x2="15.3496" y2="14.9136" gradientUnits="userSpaceOnUse">
<stop stop-color="#8B4FDD"/>
<stop offset="1" stop-color="#12B886"/>
</linearGradient>
<linearGradient id="paint3_linear_2067_297" x1="20.8823" y1="28.4443" x2="-1.9555" y2="14.9044" gradientUnits="userSpaceOnUse">
<stop stop-color="#8B4FDD"/>
<stop offset="1" stop-color="#12B886"/>
</linearGradient>
</defs>
</svg>
